<svg width="102" height="82" viewBox="0 0 102 82" fill="none" xmlns="http://www.w3.org/2000/svg">
<path d="M96.76 0H4.92C2.214 0 0 2.214 0 4.92V77.08C0 79.786 2.214 82 4.92 82H96.76C99.466 82 101.68 79.786 101.68 77.08V4.92C101.68 2.214 99.466 0 96.76 0ZM4.92 3.28H96.76C97.662 3.28 98.4 4.018 98.4 4.92V13.12H3.28V4.92C3.28 4.018 4.018 3.28 4.92 3.28ZM29.52 16.4H98.4V36.08H29.52V16.4ZM26.24 36.08H3.28V16.4H26.24V36.08ZM3.28 77.08V39.36H26.24V78.72H4.92C4.018 78.72 3.28 77.982 3.28 77.08ZM96.76 78.72H29.52V39.36H98.4V77.08C98.4 77.982 97.662 78.72 96.76 78.72ZM10.455 8.2C10.455 9.266 9.5735 10.1475 8.5075 10.1475C7.4415 10.1475 6.56 9.266 6.56 8.2C6.56 7.134 7.4415 6.2525 8.5075 6.2525C9.5735 6.2525 10.455 7.134 10.455 8.2ZM16.5025 8.2C16.5025 9.266 15.621 10.1475 14.555 10.1475C13.489 10.1475 12.6075 9.266 12.6075 8.2C12.6075 7.134 13.489 6.2525 14.555 6.2525C15.621 6.2525 16.5025 7.134 16.5025 8.2ZM22.4475 8.2C22.4475 9.266 21.566 10.1475 20.5 10.1475C19.434 10.1475 18.5525 9.266 18.5525 8.2C18.5525 7.134 19.434 6.2525 20.5 6.2525C21.566 6.2525 22.4475 7.134 22.4475 8.2Z" fill="#8F9BB3"/>
<path d="M22.9601 31.1597V21.3197C22.9601 20.4177 22.2221 19.6797 21.3201 19.6797H8.20006C7.29806 19.6797 6.56006 20.4177 6.56006 21.3197V31.1597C6.56006 32.0617 7.29806 32.7997 8.20006 32.7997H21.3201C22.2221 32.7997 22.9601 32.0617 22.9601 31.1597ZM9.84006 22.9597H19.6801V29.5197H9.84006V22.9597Z" fill="#8F9BB3"/>
<path d="M85.28 19.6797C81.672 19.6797 78.72 22.6317 78.72 26.2397C78.72 29.8477 81.672 32.7997 85.28 32.7997C88.888 32.7997 91.84 29.8477 91.84 26.2397C91.84 22.6317 88.888 19.6797 85.28 19.6797ZM85.28 29.5197C83.476 29.5197 82 28.0437 82 26.2397C82 24.4357 83.476 22.9597 85.28 22.9597C87.084 22.9597 88.56 24.4357 88.56 26.2397C88.56 28.0437 87.084 29.5197 85.28 29.5197Z" fill="#8F9BB3"/>
<path d="M65.5999 19.6797C61.9919 19.6797 59.0399 22.6317 59.0399 26.2397C59.0399 29.8477 61.9919 32.7997 65.5999 32.7997C69.2079 32.7997 72.1599 29.8477 72.1599 26.2397C72.1599 22.6317 69.2079 19.6797 65.5999 19.6797ZM65.5999 29.5197C63.7959 29.5197 62.3199 28.0437 62.3199 26.2397C62.3199 24.4357 63.7959 22.9597 65.5999 22.9597C67.4039 22.9597 68.8799 24.4357 68.8799 26.2397C68.8799 28.0437 67.4039 29.5197 65.5999 29.5197Z" fill="#8F9BB3"/>
<path d="M45.9201 19.6797C42.3121 19.6797 39.3601 22.6317 39.3601 26.2397C39.3601 29.8477 42.3121 32.7997 45.9201 32.7997C49.5281 32.7997 52.4801 29.8477 52.4801 26.2397C52.4801 22.6317 49.5281 19.6797 45.9201 19.6797ZM45.9201 29.5197C44.1161 29.5197 42.6401 28.0437 42.6401 26.2397C42.6401 24.4357 44.1161 22.9597 45.9201 22.9597C47.7241 22.9597 49.2001 24.4357 49.2001 26.2397C49.2001 28.0437 47.7241 29.5197 45.9201 29.5197Z" fill="#8F9BB3"/>
<path d="M6.56006 47.5394V54.1199C6.56006 55.0219 7.29806 55.7394 8.17956 55.7394H21.3201C22.2221 55.7394 22.9396 55.0014 22.9396 54.1199V47.5394C22.9396 46.6374 22.2016 45.9199 21.3201 45.9199H8.17956C7.29806 45.9199 6.56006 46.6579 6.56006 47.5394ZM19.6801 52.4799H9.84006V49.1999H19.6801V52.4799Z" fill="#8F9BB3"/>
<path d="M8.22056 72.1593H21.2791C22.2016 72.1593 22.9396 71.4213 22.9396 70.4988V64.0003C22.9396 63.0778 22.2016 62.3398 21.2791 62.3398H8.22056C7.29806 62.3398 6.56006 63.0778 6.56006 64.0003V70.4988C6.56006 71.4213 7.29806 72.1593 8.22056 72.1593ZM9.84006 65.5993H19.6801V68.8793H9.84006V65.5993Z" fill="#8F9BB3"/>
<path d="M57.4001 72.1606C56.4981 72.1606 55.76 71.4226 55.76 70.5206V44.2806C55.76 43.3786 55.0221 42.6406 54.1201 42.6406H47.5601C46.658 42.6406 45.92 43.3786 45.92 44.2806V70.5206C45.92 71.4226 45.182 72.1606 44.28 72.1606C43.378 72.1606 42.64 71.4226 42.64 70.5206V50.8406C42.64 49.9386 41.902 49.2006 41 49.2006H34.44C33.538 49.2006 32.8 49.9386 32.8 50.8406V73.8006C32.8 74.7026 33.538 75.4406 34.44 75.4406H67.2401C68.1421 75.4406 68.8801 74.7026 68.8801 73.8006V60.6806C68.8801 59.7786 68.1421 59.0406 67.2401 59.0406H60.68C59.7781 59.0406 59.0401 59.7786 59.0401 60.6806V70.5206C59.0401 71.4226 58.302 72.1606 57.4001 72.1606ZM39.36 72.1606H36.08V52.4806H39.36V72.1606ZM49.2001 45.9206H52.48V72.1606H49.2001V45.9206ZM62.3201 62.3206H65.6001V72.1606H62.3201V62.3206Z" fill="#8F9BB3"/>
<path d="M73.8 55.7606H93.48C94.382 55.7606 95.12 55.0226 95.12 54.1206V44.2806C95.12 43.3786 94.382 42.6406 93.48 42.6406H73.8C72.898 42.6406 72.16 43.3786 72.16 44.2806V54.1206C72.16 55.0226 72.898 55.7606 73.8 55.7606ZM75.44 45.9206H91.84V52.4806H75.44V45.9206Z" fill="#8F9BB3"/>
<path d="M73.8 59.041C74.702 59.041 75.44 59.779 75.44 60.681C75.44 61.583 74.702 62.321 73.8 62.321C72.898 62.321 72.16 61.583 72.16 60.681C72.16 59.779 72.898 59.041 73.8 59.041Z" fill="#8F9BB3"/>
<path d="M80.36 59.041H93.48C94.382 59.041 95.12 59.779 95.12 60.681C95.12 61.583 94.382 62.321 93.48 62.321H80.36C79.458 62.321 78.72 61.583 78.72 60.681C78.72 59.779 79.458 59.041 80.36 59.041Z" fill="#8F9BB3"/>
<path d="M73.8 65.5996C74.702 65.5996 75.44 66.3376 75.44 67.2396C75.44 68.1416 74.702 68.8796 73.8 68.8796C72.898 68.8796 72.16 68.1416 72.16 67.2396C72.16 66.3376 72.898 65.5996 73.8 65.5996Z" fill="#8F9BB3"/>
<path d="M80.36 65.5996H93.48C94.382 65.5996 95.12 66.3376 95.12 67.2396C95.12 68.1416 94.382 68.8796 93.48 68.8796H80.36C79.458 68.8796 78.72 68.1416 78.72 67.2396C78.72 66.3376 79.458 65.5996 80.36 65.5996Z" fill="#8F9BB3"/>
<path d="M73.8 72.1602C74.702 72.1602 75.44 72.8982 75.44 73.8002C75.44 74.7022 74.702 75.4402 73.8 75.4402C72.898 75.4402 72.16 74.7022 72.16 73.8002C72.16 72.8982 72.898 72.1602 73.8 72.1602Z" fill="#8F9BB3"/>
<path d="M80.36 72.1602H93.48C94.382 72.1602 95.12 72.8982 95.12 73.8002C95.12 74.7022 94.382 75.4402 93.48 75.4402H80.36C79.458 75.4402 78.72 74.7022 78.72 73.8002C78.72 72.8982 79.458 72.1602 80.36 72.1602Z" fill="#8F9BB3"/>
</svg>
