<svg width="74" height="68" viewBox="0 0 74 68" fill="none" xmlns="http://www.w3.org/2000/svg">
<path d="M7.70822 9.27264C8.55968 9.27264 9.24993 8.5807 9.24993 7.72714C9.24993 6.87358 8.55968 6.18164 7.70822 6.18164C6.85675 6.18164 6.1665 6.87358 6.1665 7.72714C6.1665 8.5807 6.85675 9.27264 7.70822 9.27264Z" fill="#8F9BB3"/>
<path d="M13.875 9.27264C14.7264 9.27264 15.4167 8.5807 15.4167 7.72714C15.4167 6.87358 14.7264 6.18164 13.875 6.18164C13.0235 6.18164 12.3333 6.87358 12.3333 7.72714C12.3333 8.5807 13.0235 9.27264 13.875 9.27264Z" fill="#8F9BB3"/>
<path d="M20.0417 9.27264C20.8932 9.27264 21.5834 8.5807 21.5834 7.72714C21.5834 6.87358 20.8932 6.18164 20.0417 6.18164C19.1903 6.18164 18.5 6.87358 18.5 7.72714C18.5 8.5807 19.1903 9.27264 20.0417 9.27264Z" fill="#8F9BB3"/>
<path d="M16.9582 30.9094H50.8749C51.7271 30.9094 52.4166 30.2181 52.4166 29.3639C52.4166 28.5096 51.7271 27.8184 50.8749 27.8184H16.9582C16.1061 27.8184 15.4165 28.5096 15.4165 29.3639C15.4165 30.2181 16.1062 30.9094 16.9582 30.9094Z" fill="#8F9BB3"/>
<path d="M35.4582 46.3638H16.9582C16.1061 46.3638 15.4165 47.055 15.4165 47.9093C15.4165 48.7635 16.1061 49.4548 16.9582 49.4548H35.4582C36.3104 49.4548 36.9999 48.7635 36.9999 47.9093C36.9999 47.055 36.3104 46.3638 35.4582 46.3638Z" fill="#8F9BB3"/>
<path d="M68.0984 18.5454C68.009 18.5454 67.9225 18.5679 67.8334 18.5721V6.18186C67.8334 2.77254 65.0662 0 61.6667 0H6.16671C2.7672 0 0 2.77254 0 6.18186V61.8181C0 65.2275 2.7672 68 6.16671 68H61.6667C65.0662 68 67.8334 65.2276 67.8334 61.8181V33.0937L72.2717 28.6453C72.2717 28.6453 72.2717 28.6453 72.2717 28.6439C73.3707 27.5421 74 26.0178 74 24.4617C74 21.1987 71.3533 18.5454 68.0984 18.5454ZM3.08329 6.18186C3.08329 4.478 4.46544 3.091 6.16657 3.091H61.6666C63.368 3.091 64.75 4.478 64.75 6.18186V12.3637H3.08329V6.18186ZM64.75 61.8181C64.75 63.522 63.3678 64.909 61.6667 64.909H6.16671C4.46544 64.909 3.08343 63.522 3.08343 61.8181V15.4546H64.75V19.6012C64.4573 19.8029 64.1774 20.0247 63.925 20.2781L47.1507 37.091H16.9583C16.1061 37.091 15.4166 37.7823 15.4166 38.6365C15.4166 39.4908 16.1061 40.182 16.9583 40.182H44.6772L43.1968 47.606C43.0944 48.1131 43.254 48.6368 43.6184 49.0019C43.9105 49.2948 44.3049 49.4547 44.7084 49.4547C44.8079 49.4547 44.9102 49.4441 45.0095 49.4246L52.7149 47.8791C53.0159 47.8187 53.29 47.6723 53.5037 47.4564L64.75 36.1843V61.8181ZM51.6549 44.9404L46.6746 45.9395L47.6713 40.9409L61.666 26.9119L65.6532 30.9089L51.6549 44.9404ZM70.0916 26.4598L67.8333 28.7237L63.8458 24.7264L66.1048 22.4618C66.6288 21.9381 67.3545 21.6363 68.0982 21.6363C69.6519 21.6363 70.9166 22.904 70.9166 24.4616C70.9167 25.2043 70.6155 25.9332 70.0916 26.4598Z" fill="#8F9BB3"/>
</svg>
